<?xml version="1.0" encoding="utf-8"?>
<!-- Generator: Adobe Illustrator 16.0.0, SVG Export Plug-In . SVG Version: 6.00 Build 0)  -->
<!DOCTYPE svg PUBLIC "-//W3C//DTD SVG 1.1//EN" "http://www.w3.org/Graphics/SVG/1.1/DTD/svg11.dtd">
<svg version="1.1" id="Layer_1" xmlns="http://www.w3.org/2000/svg" xmlns:xlink="http://www.w3.org/1999/xlink" x="0px" y="0px"
	 width="294px" height="83px" viewBox="0 0 294 83" enable-background="new 0 0 294 83" xml:space="preserve">
<g>
	<path fill="#FFFFFF" d="M32.048,81.837c-8.461,0-15.347-6.886-15.347-15.347V16.509c0-8.461,6.885-15.346,15.347-15.346h229.904
		c8.464,0,15.347,6.885,15.347,15.346V66.49c0,8.461-6.883,15.347-15.347,15.347H32.048z"/>
	<path fill="#1C8DCD" d="M274.228,66.49c0,6.755-5.521,12.278-12.275,12.278H32.048c-6.752,0-12.277-5.523-12.277-12.278V16.509
		c0-6.752,5.524-12.276,12.277-12.276h229.904c6.754,0,12.275,5.523,12.275,12.276V66.49z"/>
	<g>
		<rect x="28.23" y="9.875" fill-rule="evenodd" clip-rule="evenodd" fill="#FFFFFF" width="47.197" height="63.249"/>
		<rect x="29.288" y="10.935" fill-rule="evenodd" clip-rule="evenodd" fill="#FFFFFF" width="45.081" height="61.131"/>
		<rect x="29.976" y="11.828" fill-rule="evenodd" clip-rule="evenodd" fill="#1C8DCD" width="43.703" height="59.343"/>
		<rect x="33.063" y="14.861" fill-rule="evenodd" clip-rule="evenodd" fill="#FFFFFF" width="37.533" height="37.386"/>
		<path fill-rule="evenodd" clip-rule="evenodd" fill="#1C8DCD" d="M44.062,42.785c1.863-1.656,3.784-4.605,4.338-7.021
			c0.735-3.203,0.737-6.72,1.909-9.618c1.192-2.935,3.461-5.146,6.692-3.621c1.545,0.728,2.396,2.444,2.438,4.217
			c0.094,4.009-3.23,5.798-6.122,4.777c-0.074,0.731-0.082,1.593-0.082,2.325c3.6,0.91,5.994-0.384,7.457-3.204
			c1.638-3.152,1.73-8.669-2.964-10.095c-2.256-0.69-5.36-0.073-7.231,1.752c-2.092,2.04-2.833,7.446-3.398,10.111
			c-0.832,3.906-4.129,11.859-9.188,11.859c0-1.466,0-2.26,0.075-3.722c4.786-1.754,5.209-8.75,6.543-13.638
			c1.15-4.223,3.317-7.621,6.689-9.358c2.46-1.269,5.317-1.708,8.35-0.458c3.534,1.457,5.89,5.001,6.187,9.009
			c0.379,5.086-2.166,9.001-5.916,10.72c-2.247,1.029-4.931,0.842-7.678,0.842c-0.28,0.809-0.67,1.683-1.303,2.563
			c3.538,2.635,12.508-0.506,14.537-4.319c0,1.593-0.146,3.173-0.146,4.756C58.374,46.733,51.771,44.346,44.062,42.785
			L44.062,42.785z M54.857,28.597c0.691,0,1.253-0.567,1.253-1.268c0-0.703-0.562-1.269-1.253-1.269
			c-0.694,0-1.256,0.565-1.256,1.269C53.602,28.03,54.164,28.597,54.857,28.597L54.857,28.597z M37.625,51.053
			c3.029-2.136,8.148-1.802,13.611-1.161c4.567,0.532,8.659,0.379,14.012-3.082c-0.074-1.39-0.146-2.78-0.146-4.099
			c-3.735,3.698-9.479,3.844-14.688,3.367c-4.731-0.433-8.274-1.121-12.79,1.317C37.625,48.567,37.625,49.813,37.625,51.053z"/>
		<path fill-rule="evenodd" clip-rule="evenodd" fill="#FFFFFF" d="M64.15,57.852h4.367v8.337h4.143v2.274c-2.835,0-5.674,0-8.51,0
			V57.852L64.15,57.852z M48.355,68.463h4.371v-4.087h3.486c1.439,0,2.617-0.789,2.617-1.758v-3.01c0-0.968-1.177-1.757-2.617-1.757
			c-2.618,0-5.238,0-7.857,0V68.463L48.355,68.463z M52.727,62.953v-3.679h0.09c0.812,0,1.474,0.443,1.474,0.993v1.695
			c0,0.55-0.663,0.99-1.474,0.99H52.727L52.727,62.953z M32.507,68.463h4.371v-4.087h3.486c1.439,0,2.617-0.789,2.617-1.758v-3.01
			c0-0.968-1.177-1.757-2.617-1.757c-2.619,0-5.237,0-7.857,0V68.463L32.507,68.463z M36.877,62.953v-3.679h0.089
			c0.816,0,1.478,0.443,1.478,0.993v1.695c0,0.55-0.662,0.99-1.478,0.99H36.877z"/>
	</g>
	<g>
		<path fill="#FFFFFF" stroke="#FFFFFF" stroke-width="0.7382" stroke-miterlimit="10" d="M85.727,34.387V12.973h8.534
			c4.866,0,8.23,2.54,8.23,7.036c0,4.527-3.365,7.067-8.23,7.067h-4.496v7.311H85.727z M93.527,23.619c3.305,0,4.833-1.5,4.833-3.61
			s-1.528-3.579-4.833-3.579h-3.763v7.189H93.527z"/>
		<path fill="#FFFFFF" stroke="#FFFFFF" stroke-width="0.7382" stroke-miterlimit="10" d="M118.629,34.387v-1.624
			c-1.439,1.404-2.731,2.104-4.76,2.104c-4.651,0-7.42-3.95-7.42-8.305c0-4.281,2.806-8.12,7.346-8.12
			c2.067,0,3.434,0.739,4.835,2.214v-1.809h3.617v15.539H118.629z M114.458,21.654c-2.804,0-4.318,2.437-4.318,5.02
			c0,2.545,1.55,4.946,4.318,4.946c2.842,0,4.392-2.289,4.392-4.946C118.851,24.052,117.301,21.654,114.458,21.654z"/>
		<path fill="#FFFFFF" stroke="#FFFFFF" stroke-width="0.7382" stroke-miterlimit="10" d="M127.901,34.387V19.519h3.701v2.601
			c0.766-1.865,2.387-2.937,4.345-2.937c0.552,0,1.194,0.093,1.438,0.306v3.703c-0.458-0.153-1.223-0.215-1.774-0.215
			c-2.018,0-3.763,1.346-3.763,3.701v7.709H127.901z"/>
		<path fill="#FFFFFF" stroke="#FFFFFF" stroke-width="0.7382" stroke-miterlimit="10" d="M152.732,34.387v-1.624
			c-1.441,1.404-2.733,2.104-4.763,2.104c-4.651,0-7.42-3.95-7.42-8.305c0-4.281,2.805-8.12,7.346-8.12
			c2.066,0,3.431,0.739,4.837,2.214v-1.809h3.616v15.539H152.732z M148.56,21.654c-2.806,0-4.318,2.437-4.318,5.02
			c0,2.545,1.551,4.946,4.318,4.946c2.844,0,4.395-2.289,4.395-4.946C152.954,24.052,151.403,21.654,148.56,21.654z"/>
		<path fill="#FFFFFF" stroke="#FFFFFF" stroke-width="0.7382" stroke-miterlimit="10" d="M160.992,26.954
			c0-4.71,3.152-7.771,7.253-7.771c1.958,0,3.64,0.919,4.527,2.417V11.444h3.946v22.943h-3.702V31.94
			c-0.888,1.776-2.66,2.784-4.771,2.784C164.145,34.724,160.992,31.666,160.992,26.954z M172.772,26.954
			c0-2.509-1.59-4.314-3.857-4.314c-2.292,0-3.883,1.806-3.883,4.314c0,2.508,1.591,4.313,3.883,4.313
			C171.183,31.267,172.772,29.462,172.772,26.954z"/>
		<path fill="#FFFFFF" stroke="#FFFFFF" stroke-width="0.7382" stroke-miterlimit="10" d="M180.782,26.954
			c0-4.467,3.061-7.771,7.774-7.771c4.708,0,7.77,3.305,7.77,7.74c0,0.275-0.029,0.733-0.063,0.979h-11.441
			c0.124,2.08,1.775,3.61,4.007,3.61c1.715,0,2.999-0.766,3.672-1.867l3.457,0.611c-1.04,2.571-3.7,4.467-7.129,4.467
			C183.69,34.724,180.782,31.359,180.782,26.954z M184.822,25.455h7.468c-0.276-1.836-1.775-3.121-3.733-3.121
			C186.598,22.334,185.099,23.619,184.822,25.455z"/>
		<path fill="#FFFFFF" stroke="#FFFFFF" stroke-width="0.7382" stroke-miterlimit="10" d="M199.383,26.954
			c0-4.467,3.061-7.771,7.77-7.771c4.713,0,7.773,3.305,7.773,7.74c0,0.275-0.032,0.733-0.062,0.979h-11.441
			c0.12,2.08,1.772,3.61,4.006,3.61c1.714,0,2.999-0.766,3.672-1.867l3.457,0.611c-1.04,2.571-3.701,4.467-7.129,4.467
			C202.29,34.724,199.383,31.359,199.383,26.954z M203.423,25.455h7.463c-0.275-1.836-1.775-3.121-3.733-3.121
			C205.195,22.334,203.695,23.619,203.423,25.455z"/>
		<path fill="#FFFFFF" stroke="#FFFFFF" stroke-width="0.7382" stroke-miterlimit="10" d="M222.939,32.308v9.116h-3.948V19.519
			h3.701v2.447c0.888-1.773,2.664-2.784,4.773-2.784c4.069,0,7.25,3.061,7.25,7.771c0,4.712-3.181,7.77-7.25,7.77
			C225.509,34.724,223.823,33.836,222.939,32.308z M230.677,26.954c0-2.509-1.591-4.314-3.884-4.314
			c-2.263,0-3.854,1.806-3.854,4.314c0,2.508,1.591,4.313,3.854,4.313C229.086,31.267,230.677,29.462,230.677,26.954z"/>
		<path fill="#FFFFFF" stroke="#FFFFFF" stroke-width="0.7382" stroke-miterlimit="10" d="M85.727,64.521V43.105h8.534
			c4.866,0,8.23,2.54,8.23,7.038c0,4.527-3.365,7.067-8.23,7.067h-4.496v7.311H85.727z M93.527,53.754c3.305,0,4.833-1.5,4.833-3.61
			c0-2.111-1.528-3.581-4.833-3.581h-3.763v7.191H93.527z"/>
		<path fill="#FFFFFF" stroke="#FFFFFF" stroke-width="0.7382" stroke-miterlimit="10" d="M117.111,64.521v-7.464
			c0-2.569-0.948-4.04-3.09-4.04c-2.172,0-3.212,1.624-3.212,4.16v7.344h-3.947V41.577h3.947v10.127
			c0.886-1.531,2.295-2.387,4.466-2.387c3.978,0,5.783,2.292,5.783,6.208v8.996H117.111z"/>
		<path fill="#FFFFFF" stroke="#FFFFFF" stroke-width="0.7382" stroke-miterlimit="10" d="M125.125,57.087
			c0-4.466,3.274-7.77,7.984-7.77c4.713,0,8.016,3.304,8.016,7.77s-3.303,7.77-8.016,7.77
			C128.398,64.856,125.125,61.553,125.125,57.087z M137.087,57.087c0-2.508-1.652-4.313-3.978-4.313
			c-2.294,0-3.947,1.805-3.947,4.313s1.652,4.313,3.947,4.313C135.435,61.399,137.087,59.595,137.087,57.087z"/>
		<path fill="#FFFFFF" stroke="#FFFFFF" stroke-width="0.7382" stroke-miterlimit="10" d="M144.182,60.391l3.55-0.581
			c0.489,1.437,1.835,2.08,3.118,2.08c1.499,0,2.632-0.581,2.632-1.407c0-0.641-0.55-1.041-1.925-1.438l-2.51-0.703
			c-3.213-0.888-4.558-2.143-4.558-4.469c0-2.537,2.691-4.556,6.361-4.556c4.103,0,6.365,2.387,6.365,4.466l-3.548,0.581
			c-0.339-1.317-1.438-2.081-2.817-2.081c-1.313,0-2.323,0.61-2.323,1.471c0,0.64,0.458,0.979,1.621,1.284l2.508,0.673
			c3.61,0.979,4.866,2.355,4.866,4.589c0,2.752-3.182,4.557-6.672,4.557C146.752,64.856,144.182,62.626,144.182,60.391z"/>
		<path fill="#FFFFFF" stroke="#FFFFFF" stroke-width="0.7382" stroke-miterlimit="10" d="M165.535,62.44v9.115h-3.949V49.651h3.705
			v2.45c0.885-1.776,2.66-2.784,4.771-2.784c4.069,0,7.249,3.06,7.249,7.77c0,4.713-3.18,7.77-7.249,7.77
			C168.104,64.856,166.423,63.969,165.535,62.44z M173.275,57.087c0-2.508-1.59-4.313-3.887-4.313c-2.264,0-3.854,1.805-3.854,4.313
			s1.59,4.313,3.854,4.313C171.686,61.399,173.275,59.595,173.275,57.087z"/>
		<path fill="#FFFFFF" stroke="#FFFFFF" stroke-width="0.7382" stroke-miterlimit="10" d="M191.628,64.521v-7.464
			c0-2.569-0.946-4.04-3.09-4.04c-2.172,0-3.213,1.624-3.213,4.16v7.344h-3.946V41.577h3.946v10.127
			c0.888-1.531,2.296-2.387,4.469-2.387c3.974,0,5.782,2.292,5.782,6.208v8.996H191.628z"/>
		<path fill="#FFFFFF" stroke="#FFFFFF" stroke-width="0.7382" stroke-miterlimit="10" d="M212.414,64.521v-1.623
			c-1.437,1.401-2.729,2.104-4.76,2.104c-4.65,0-7.42-3.952-7.42-8.305c0-4.283,2.806-8.122,7.348-8.122
			c2.066,0,3.432,0.738,4.832,2.216v-1.809h3.621v15.539H212.414z M208.244,51.784c-2.802,0-4.315,2.438-4.315,5.022
			c0,2.548,1.55,4.945,4.315,4.945c2.846,0,4.396-2.289,4.396-4.945C212.64,54.187,211.09,51.784,208.244,51.784z"/>
		<path fill="#FFFFFF" stroke="#FFFFFF" stroke-width="0.7382" stroke-miterlimit="10" d="M222.637,58.83v-6.026h-2.507v-3.152
			h1.041c1.161,0,1.466-0.334,1.71-1.71l0.521-2.998h3.185v4.708h3.271v3.152h-3.271v6.026c0,1.806,0.517,2.569,2.141,2.569
			c0.396,0,0.734-0.029,1.131-0.091v3.242c-0.673,0.186-1.375,0.306-2.264,0.306C223.955,64.856,222.637,63.204,222.637,58.83z"/>
		<path fill="#FFFFFF" stroke="#FFFFFF" stroke-width="0.7382" stroke-miterlimit="10" d="M232.824,57.087
			c0-4.466,3.06-7.77,7.77-7.77c4.713,0,7.77,3.304,7.77,7.74c0,0.272-0.029,0.731-0.059,0.979h-11.441
			c0.123,2.077,1.772,3.609,4.007,3.609c1.714,0,2.998-0.768,3.671-1.866l3.458,0.61c-1.04,2.569-3.704,4.466-7.129,4.466
			C235.73,64.856,232.824,61.494,232.824,57.087z M236.863,55.587h7.464c-0.276-1.833-1.775-3.118-3.733-3.118
			S237.14,53.754,236.863,55.587z"/>
		<path fill="#FFFFFF" stroke="#FFFFFF" stroke-width="0.7382" stroke-miterlimit="10" d="M251.423,60.391l3.549-0.581
			c0.488,1.437,1.834,2.08,3.119,2.08c1.499,0,2.631-0.581,2.631-1.407c0-0.641-0.55-1.041-1.925-1.438l-2.511-0.703
			c-3.21-0.888-4.557-2.143-4.557-4.469c0-2.537,2.689-4.556,6.361-4.556c4.101,0,6.365,2.387,6.365,4.466l-3.549,0.581
			c-0.338-1.317-1.438-2.081-2.816-2.081c-1.314,0-2.326,0.61-2.326,1.471c0,0.64,0.459,0.979,1.624,1.284l2.507,0.673
			c3.61,0.979,4.865,2.355,4.865,4.589c0,2.752-3.18,4.557-6.67,4.557C253.993,64.856,251.423,62.626,251.423,60.391z"/>
	</g>
</g>
</svg>
