<svg id="Group_9817" data-name="Group 9817" xmlns="http://www.w3.org/2000/svg" width="266" height="70.558" viewBox="0 0 266 70.558">
  <g id="Group_9818" data-name="Group 9818">
    <path id="Path_22478" data-name="Path 22478" d="M25.093,20.869a4.575,4.575,0,0,1,3.91,2.2l.016.024.31.629,4.714,9.425L17.918,65.4H0L20.888,23.624c.008-.016.016-.032.024-.052l.06-.119h0a4.573,4.573,0,0,1,4.117-2.584" transform="translate(0 -10.776)" fill="#003580"/>
    <path id="Path_22479" data-name="Path 22479" d="M56.431,9.014a14.408,14.408,0,0,1,12.845,7.86l.183.362,7.12,14.243,4.941,9.879L86.338,51c.036.08.076.155.119.235a4.544,4.544,0,0,0,7.729.422,14.339,14.339,0,0,1-25.587-.5l-.08.04L61.413,36.982l-4.978-9.959L51.721,17.6a4.389,4.389,0,0,0-.31-.629l-.016-.024a4.575,4.575,0,0,0-8.027.386h0l.383-.768a.09.09,0,0,0,.016-.032,14.55,14.55,0,0,1,4.826-5.2,14.356,14.356,0,0,1,7.844-2.313" transform="translate(-22.391 -4.655)" fill="#de0f17"/>
    <path id="Path_22480" data-name="Path 22480" d="M155.19,11.432l-7.845,15.689-.005.005L135.228,51.352l-.042-.021a4.314,4.314,0,0,0,.4-1,15.406,15.406,0,0,1-.66,1.418l-.005,0a4.543,4.543,0,0,1-7.726-.423,2.383,2.383,0,0,1-.118-.232l-4.819-9.644L127.2,31.58l7.071-14.148a.129.129,0,0,1,.021-.037l.443-.891a14.515,14.515,0,0,1,4.752-5.077.005.005,0,0,0,.005-.005,14.339,14.339,0,0,1,6.2-2.216h3.294a14.332,14.332,0,0,1,6.2,2.226Z" transform="translate(-63.131 -4.754)" fill="#9c3"/>
    <path id="Path_22481" data-name="Path 22481" d="M194.211,59.278H176.295L172.254,51.2,166.93,40.542h-.005l-1.784-3.562-4.979-9.953v-.005L155.446,17.6c-.026-.062-.052-.124-.082-.186l-.186-.371a.551.551,0,0,0-.042-.077l-.015-.02a4.567,4.567,0,0,0-8,.35.127.127,0,0,0-.021.036h-.005l.382-.768.015-.031c.026-.041.046-.088.072-.129a14.519,14.519,0,0,1,4.752-5.077,0,0,0,0,0,0,0,14.43,14.43,0,0,1,7.84-2.309,14.537,14.537,0,0,1,1.65.093,14.342,14.342,0,0,1,6.2,2.227h0A14.432,14.432,0,0,1,173,16.874l.185.361,11.654,23.307.407.814L190.067,51a2.441,2.441,0,0,0,.118.232c0,.01.01.015.016.026l2.855,5.706Z" transform="translate(-75.952 -4.655)" fill="#003580"/>
    <path id="Path_22482" data-name="Path 22482" d="M294.4,88.058h0a2.456,2.456,0,0,1-2.456-2.456V74.675l-5.436,9.674a2.457,2.457,0,0,1-2.142,1.253h-2.052a2.457,2.457,0,0,1-2.142-1.253l-5.436-9.674V85.6a2.456,2.456,0,1,1-4.912,0V68.4a2.456,2.456,0,0,1,2.456-2.456h1.593a2.456,2.456,0,0,1,2.17,1.3l7.289,13.739,7.3-13.74a2.456,2.456,0,0,1,2.169-1.3H294.4a2.456,2.456,0,0,1,2.456,2.456V85.6a2.456,2.456,0,0,1-2.456,2.456" transform="translate(-139.328 -34.048)" fill="#003580"/>
    <path id="Path_22483" data-name="Path 22483" d="M345,88.017a15.094,15.094,0,0,1-6.8-1.521,12.62,12.62,0,0,1-4.891-4.159,10.761,10.761,0,0,1,0-11.98,12.591,12.591,0,0,1,4.891-4.166,15.959,15.959,0,0,1,13.6,0,12.661,12.661,0,0,1,4.891,4.166,10.727,10.727,0,0,1,0,11.98A12.69,12.69,0,0,1,351.8,86.5a15.084,15.084,0,0,1-6.8,1.521m0-4.675a10.784,10.784,0,0,0,4.222-.824,7.706,7.706,0,0,0,3.175-2.386,6.519,6.519,0,0,0,0-7.577,7.71,7.71,0,0,0-3.175-2.386,11.187,11.187,0,0,0-8.443.007,7.69,7.69,0,0,0-3.168,2.4,6.484,6.484,0,0,0,0,7.536,7.683,7.683,0,0,0,3.168,2.4,10.707,10.707,0,0,0,4.221.83" transform="translate(-171.168 -33.393)" fill="#003580"/>
    <path id="Path_22484" data-name="Path 22484" d="M413.736,88.058h-.013a3.985,3.985,0,0,1-3.042-1.41l-12.622-14.9V88.058h-4.912V69.926a3.986,3.986,0,0,1,7.027-2.578l12.635,14.9V65.939h4.912V84.072a3.986,3.986,0,0,1-3.986,3.986" transform="translate(-203.007 -34.048)" fill="#003580"/>
    <path id="Path_22485" data-name="Path 22485" d="M469.394,88.058H449.732V65.939h19.662v4.3h-14.75v4.619h12.295v4.3H454.644v4.605h14.75Z" transform="translate(-232.225 -34.048)" fill="#003580"/>
    <path id="Path_22486" data-name="Path 22486" d="M510.088,88.058h-4.926V77L494.11,65.939h6.14l7.368,7.075L515,65.939h6.14L510.088,77Z" transform="translate(-255.14 -34.048)" fill="#003580"/>
    <rect id="Rectangle_12304" data-name="Rectangle 12304" width="4.912" height="20.36" transform="translate(238.97 6.81)" fill="#003580"/>
    <path id="Path_22487" data-name="Path 22487" d="M497.78,0h-2.428a1.242,1.242,0,0,0-1.242,1.242V3.118a1.242,1.242,0,0,0,1.242,1.242h2.428a1.242,1.242,0,0,0,1.242-1.242V1.242A1.242,1.242,0,0,0,497.78,0" transform="translate(-255.14)" fill="#de0f17"/>
    <path id="Path_22488" data-name="Path 22488" d="M294.4,32.564h-21.28a3.295,3.295,0,0,1-2.015-5.9L286.53,14.743H270.44v-4.3h20.052a3.295,3.295,0,0,1,2.015,5.9L277.082,28.266H294.4Z" transform="translate(-139.328 -5.393)" fill="#003580"/>
    <path id="Path_22489" data-name="Path 22489" d="M338.689,33.178a17.555,17.555,0,0,1-4.578-.593,11.9,11.9,0,0,1-3.935-1.849,9.033,9.033,0,0,1-2.749-3.238,10.291,10.291,0,0,1-1.02-4.759V10.445h4.912V22.74a4.572,4.572,0,0,0,1.047,3.07,6.367,6.367,0,0,0,2.735,1.842,10.415,10.415,0,0,0,3.587.614,10.8,10.8,0,0,0,3.6-.593,6.218,6.218,0,0,0,2.735-1.821,4.627,4.627,0,0,0,1.047-3.112V10.445h4.912V22.74a10.3,10.3,0,0,1-1.019,4.759,9.045,9.045,0,0,1-2.749,3.238,11.9,11.9,0,0,1-3.935,1.849,17.609,17.609,0,0,1-4.591.593" transform="translate(-168.545 -5.393)" fill="#003580"/>
    <path id="Path_22490" data-name="Path 22490" d="M459.786,24.443a6.982,6.982,0,0,0,3.022-2.625,7.318,7.318,0,0,0,1.094-3.991,7.612,7.612,0,0,0-.942-3.813,6.689,6.689,0,0,0-2.667-2.618,8.34,8.34,0,0,0-4.1-.948h-11.33a2.149,2.149,0,1,0,0,4.3H456.2a2.735,2.735,0,0,1,1.949.809,3.006,3.006,0,0,1,.844,2.273,3.106,3.106,0,0,1-.788,2.262,2.682,2.682,0,0,1-2.005.809H442.719V32.565h4.912V25.2h7.146l4.409,7.369h5.595Z" transform="translate(-228.604 -5.395)" fill="#003580"/>
    <path id="Path_22491" data-name="Path 22491" d="M397.039,10.448h-4.925L381.06,32.565h5.218l2.388-4.911,2.091-4.3,3.81-7.843,3.824,7.843h-.01l2.088,4.3h0l2.4,4.911h5.218Z" transform="translate(-196.765 -5.395)" fill="#003580"/>
    <rect id="Rectangle_12305" data-name="Rectangle 12305" width="1.179" height="6.872" transform="translate(0.824 62.26)"/>
    <path id="Path_22492" data-name="Path 22492" d="M14.882,135.605h-1.29l-3.911-5.227H9.647v5.227H8.527v-6.872H9.791l3.937,5.286h.034v-5.286h1.12Z" transform="translate(-4.403 -66.473)"/>
    <path id="Path_22493" data-name="Path 22493" d="M27.361,135.605l-2.8-6.872h1.289l2.206,5.583H28.1l2.2-5.583h1.256l-2.8,6.872Z" transform="translate(-12.683 -66.473)"/>
    <path id="Path_22494" data-name="Path 22494" d="M46.8,135.605H41.911v-6.872H46.8v1.019H43.091v1.79h3.471v1H43.091v2.045H46.8Z" transform="translate(-21.642 -66.473)"/>
    <path id="Path_22495" data-name="Path 22495" d="M57.694,135.6a3.553,3.553,0,0,1-2.151-.59,2.127,2.127,0,0,1-.878-1.641h1.222a1.183,1.183,0,0,0,.525.933,2.335,2.335,0,0,0,1.324.322,2.091,2.091,0,0,0,1.137-.254.853.853,0,0,0,.391-.764.819.819,0,0,0-.263-.632,1.675,1.675,0,0,0-.806-.352l-1.358-.272a2.7,2.7,0,0,1-1.4-.653,1.6,1.6,0,0,1-.471-1.188,1.73,1.73,0,0,1,.7-1.455,3.049,3.049,0,0,1,1.892-.53,3.206,3.206,0,0,1,1.956.556,2.1,2.1,0,0,1,.853,1.549H59.145a1.466,1.466,0,0,0-1.655-1.154,1.8,1.8,0,0,0-1,.242.781.781,0,0,0-.365.692q0,.7,1.01.908l1.417.288a2.609,2.609,0,0,1,1.408.662,1.732,1.732,0,0,1,.458,1.256,1.816,1.816,0,0,1-.717,1.532,3.241,3.241,0,0,1-2.006.547" transform="translate(-28.227 -66.365)"/>
    <path id="Path_22496" data-name="Path 22496" d="M71.9,135.605H70.733v-5.854h-2.35v-1.019h5.871v1.019H71.9Z" transform="translate(-35.311 -66.473)"/>
    <path id="Path_22497" data-name="Path 22497" d="M90.7,135.605l-2-6.872h1.23l1.417,5.167h.043l1.536-5.167H94L95.63,133.9h.034l1.4-5.167H98.3l-2,6.872H95.1l-1.621-5.269h-.034l-1.536,5.269Z" transform="translate(-45.8 -66.473)"/>
    <rect id="Rectangle_12306" data-name="Rectangle 12306" width="1.179" height="6.872" transform="translate(54.097 62.26)"/>
    <path id="Path_22498" data-name="Path 22498" d="M120.989,135.605h-1.171v-5.854h-2.35v-1.019h5.871v1.019h-2.35Z" transform="translate(-60.656 -66.473)"/>
    <path id="Path_22499" data-name="Path 22499" d="M132.713,135.605v-6.872h1.179v2.8h3.7v-2.8h1.18v6.872h-1.18v-3.054h-3.7v3.054Z" transform="translate(-68.528 -66.473)"/>
    <path id="Path_22500" data-name="Path 22500" d="M158,135.605h-1.171v-5.854h-2.35v-1.019h5.871v1.019H158Z" transform="translate(-79.77 -66.473)"/>
    <path id="Path_22501" data-name="Path 22501" d="M169.728,135.605v-6.872h3.411a2.607,2.607,0,0,1,1.68.492,1.854,1.854,0,0,1,.382,2.269,1.482,1.482,0,0,1-.679.581v.034a.915.915,0,0,1,.67.233.9.9,0,0,1,.238.675v2.587h-1.171v-2.724h-3.352v2.724Zm1.179-3.724h2.138a1.323,1.323,0,0,0,.9-.28,1.143,1.143,0,0,0,0-1.582,1.34,1.34,0,0,0-.9-.276h-2.138Z" transform="translate(-87.641 -66.473)"/>
    <path id="Path_22502" data-name="Path 22502" d="M188.371,135.707a3.985,3.985,0,0,1-1.591-.288,2.16,2.16,0,0,1-1.018-.866,2.744,2.744,0,0,1-.352-1.451v-4.369H186.6v4.251a1.6,1.6,0,0,0,.442,1.218,1.935,1.935,0,0,0,1.374.42,1.868,1.868,0,0,0,1.362-.433,1.608,1.608,0,0,0,.437-1.2v-4.259h1.171v4.386a2.364,2.364,0,0,1-.794,1.931,3.381,3.381,0,0,1-2.218.657" transform="translate(-95.739 -66.473)"/>
    <path id="Path_22503" data-name="Path 22503" d="M204,135.6a3.552,3.552,0,0,1-2.151-.59,2.128,2.128,0,0,1-.878-1.641h1.222a1.183,1.183,0,0,0,.526.933,2.334,2.334,0,0,0,1.324.322,2.088,2.088,0,0,0,1.137-.254.852.852,0,0,0,.391-.764.819.819,0,0,0-.263-.632,1.67,1.67,0,0,0-.806-.352l-1.358-.272a2.7,2.7,0,0,1-1.4-.653,1.6,1.6,0,0,1-.471-1.188,1.729,1.729,0,0,1,.7-1.455,3.049,3.049,0,0,1,1.892-.53,3.206,3.206,0,0,1,1.956.556,2.1,2.1,0,0,1,.853,1.549h-1.222a1.466,1.466,0,0,0-1.655-1.154,1.8,1.8,0,0,0-1,.242.781.781,0,0,0-.365.692q0,.7,1.009.908l1.417.288a2.609,2.609,0,0,1,1.408.662,1.734,1.734,0,0,1,.458,1.256,1.816,1.816,0,0,1-.717,1.532A3.243,3.243,0,0,1,204,135.6" transform="translate(-103.774 -66.365)"/>
    <path id="Path_22504" data-name="Path 22504" d="M218.211,135.605H217.04v-5.854h-2.35v-1.019h5.871v1.019h-2.35Z" transform="translate(-110.858 -66.473)"/>
    <path id="Path_22505" data-name="Path 22505" d="M226.829,142.973v-.679h.356a.445.445,0,0,0,.343-.123.473.473,0,0,0,.115-.335v-.288h-.6v-1.307h1.332v1.62a1.137,1.137,0,0,1-.28.819,1.1,1.1,0,0,1-.831.293Z" transform="translate(-117.126 -72.415)"/>
    <rect id="Rectangle_12307" data-name="Rectangle 12307" width="1.179" height="6.872" transform="translate(116.075 62.26)"/>
    <path id="Path_22506" data-name="Path 22506" d="M253.182,135.605h-1.29l-3.911-5.227h-.034v5.227h-1.12v-6.872h1.264l3.937,5.286h.034v-5.286h1.12Z" transform="translate(-127.453 -66.473)"/>
    <path id="Path_22507" data-name="Path 22507" d="M265.662,135.605l-2.8-6.872h1.289l2.206,5.583h.043l2.2-5.583h1.255l-2.8,6.872Z" transform="translate(-135.732 -66.473)"/>
    <path id="Path_22508" data-name="Path 22508" d="M285.1,135.605h-4.887v-6.872H285.1v1.019h-3.708v1.79h3.47v1h-3.47v2.045H285.1Z" transform="translate(-144.692 -66.473)"/>
    <path id="Path_22509" data-name="Path 22509" d="M295.994,135.6a3.55,3.55,0,0,1-2.151-.59,2.125,2.125,0,0,1-.878-1.641h1.222a1.184,1.184,0,0,0,.526.933,2.333,2.333,0,0,0,1.323.322,2.09,2.09,0,0,0,1.137-.254.852.852,0,0,0,.39-.764.819.819,0,0,0-.263-.632,1.666,1.666,0,0,0-.806-.352l-1.357-.272a2.694,2.694,0,0,1-1.4-.653,1.6,1.6,0,0,1-.471-1.188,1.73,1.73,0,0,1,.7-1.455,3.049,3.049,0,0,1,1.892-.53,3.206,3.206,0,0,1,1.956.556,2.1,2.1,0,0,1,.852,1.549h-1.222a1.466,1.466,0,0,0-1.655-1.154,1.794,1.794,0,0,0-1,.242.782.782,0,0,0-.365.692q0,.7,1.01.908l1.417.288a2.611,2.611,0,0,1,1.409.662,1.734,1.734,0,0,1,.458,1.256,1.816,1.816,0,0,1-.717,1.532,3.243,3.243,0,0,1-2.006.547" transform="translate(-151.276 -66.365)"/>
    <path id="Path_22510" data-name="Path 22510" d="M310.2,135.605h-1.171v-5.854h-2.35v-1.019h5.871v1.019H310.2Z" transform="translate(-158.36 -66.473)"/>
    <path id="Path_22511" data-name="Path 22511" d="M329,135.605l-2-6.872h1.23l1.417,5.167h.042l1.536-5.167H332.3l1.629,5.167h.034l1.4-5.167H336.6l-2,6.872h-1.2l-1.621-5.269h-.033l-1.536,5.269Z" transform="translate(-168.85 -66.473)"/>
    <rect id="Rectangle_12308" data-name="Rectangle 12308" width="1.179" height="6.872" transform="translate(169.347 62.26)"/>
    <path id="Path_22512" data-name="Path 22512" d="M359.289,135.605h-1.171v-5.854h-2.35v-1.019h5.871v1.019h-2.35Z" transform="translate(-183.706 -66.473)"/>
    <path id="Path_22513" data-name="Path 22513" d="M371.013,135.605v-6.872h1.179v2.8h3.7v-2.8h1.179v6.872h-1.179v-3.054h-3.7v3.054Z" transform="translate(-191.578 -66.473)"/>
    <path id="Path_22514" data-name="Path 22514" d="M392.977,135.605v-.815l3.869-5.039H393.13v-1.019h5.227v.815l-3.869,5.039h3.971v1.018Z" transform="translate(-202.919 -66.473)"/>
    <path id="Path_22515" data-name="Path 22515" d="M410.376,135.707a3.984,3.984,0,0,1-1.591-.288,2.162,2.162,0,0,1-1.019-.866,2.744,2.744,0,0,1-.352-1.451v-4.369H408.6v4.251a1.6,1.6,0,0,0,.441,1.218,1.936,1.936,0,0,0,1.375.42,1.868,1.868,0,0,0,1.361-.433,1.606,1.606,0,0,0,.437-1.2v-4.259h1.171v4.386a2.363,2.363,0,0,1-.793,1.931,3.383,3.383,0,0,1-2.219.657" transform="translate(-210.374 -66.473)"/>
    <path id="Path_22516" data-name="Path 22516" d="M422.011,135.605l2.927-6.872h1.256l2.91,6.872h-1.2l-.806-1.884h-3.122l-.806,1.884Zm2.35-2.885h2.4l-1.179-2.808h-.043Z" transform="translate(-217.911 -66.473)"/>
    <path id="Path_22517" data-name="Path 22517" d="M439.466,135.605v-6.872h3.41a2.608,2.608,0,0,1,1.68.492,1.855,1.855,0,0,1,.382,2.269,1.479,1.479,0,0,1-.679.581v.034a.914.914,0,0,1,.67.233.9.9,0,0,1,.238.675v2.587H444v-2.724h-3.351v2.724Zm1.179-3.724h2.138a1.324,1.324,0,0,0,.9-.28,1.144,1.144,0,0,0,0-1.582,1.34,1.34,0,0,0-.9-.276h-2.138Z" transform="translate(-226.924 -66.473)"/>
    <rect id="Rectangle_12309" data-name="Rectangle 12309" width="1.179" height="6.872" transform="translate(220.245 62.26)"/>
    <path id="Path_22518" data-name="Path 22518" d="M468.376,135.605v-6.872h1.655l2.223,5.235h.034l2.231-5.235h1.646v6.872h-1.18v-5.336h-.033l-2.223,5.336h-.984l-2.231-5.345h-.034v5.345Z" transform="translate(-241.852 -66.473)"/>
    <path id="Path_22519" data-name="Path 22519" d="M491.519,135.6a3.7,3.7,0,0,1-1.828-.437,3.045,3.045,0,0,1-1.218-1.235,4.255,4.255,0,0,1,0-3.738,3.064,3.064,0,0,1,1.213-1.229,3.688,3.688,0,0,1,1.832-.437,3.736,3.736,0,0,1,1.841.433,3,3,0,0,1,1.209,1.226,3.9,3.9,0,0,1,.428,1.879,3.852,3.852,0,0,1-.432,1.866,3.052,3.052,0,0,1-1.213,1.235,3.694,3.694,0,0,1-1.833.437m0-1.026a2.143,2.143,0,0,0,1.684-.679,3.086,3.086,0,0,0,0-3.67,2.444,2.444,0,0,0-3.372,0,3.083,3.083,0,0,0,0,3.674,2.147,2.147,0,0,0,1.684.675" transform="translate(-252.007 -66.365)"/>
    <path id="Path_22520" data-name="Path 22520" d="M512.341,135.605h-1.289l-3.911-5.227h-.034v5.227h-1.12v-6.872h1.264l3.936,5.286h.034v-5.286h1.12Z" transform="translate(-261.273 -66.473)"/>
    <path id="Path_22521" data-name="Path 22521" d="M528.329,135.605h-4.887v-6.872h4.887v1.019h-3.708v1.79h3.47v1h-3.47v2.045h3.708Z" transform="translate(-270.287 -66.473)"/>
    <path id="Path_22522" data-name="Path 22522" d="M538.258,135.605v-2.571l-2.57-4.3h1.34l1.824,3.114h.034l1.833-3.114H542l-2.571,4.285v2.588Z" transform="translate(-276.61 -66.473)"/>
  </g>
</svg>
